<svg id="Layer_1" data-name="Layer 1" xmlns="http://www.w3.org/2000/svg" viewBox="0 0 105.64 88.27"><defs><style>.cls-1{fill:#006837;}.cls-2{fill:none;stroke:red;stroke-miterlimit:10;}</style></defs><title>connectFour</title><path class="cls-1" d="M26.76,83.21a10.86,10.86,0,0,0-7.5,1.15,8.4,8.4,0,0,0-4.67,4.93c-.68,2.46.27,5,1.46,7.17a17.42,17.42,0,0,0,4.37,5.25,11.43,11.43,0,0,0,12.45,1.55c4.35-2.3,5.5-7.71,4.67-12.21s-5.47-10.67-10.73-8.16c-1.74.83-.22,3.42,1.51,2.59,1.45-.69,3.17.65,4.1,1.64a9,9,0,0,1,2.07,4c.75,3,.35,7.19-2.41,9.11a8,8,0,0,1-8.72-.1,13.48,13.48,0,0,1-5.92-8.23c-.38-2.09.81-3.52,2.52-4.52a8.29,8.29,0,0,1,6-1.29c1.87.47,2.67-2.43.79-2.89Z" transform="translate(-11.18 -18.62)"/><path class="cls-1" d="M79.25,42a10.91,10.91,0,0,0-7.5,1.16c-2.07,1-4,2.62-4.68,4.93s.28,5,1.47,7.17a17.51,17.51,0,0,0,4.36,5.25A11.46,11.46,0,0,0,85.36,62c4.34-2.3,5.5-7.72,4.66-12.21s-5.47-10.67-10.73-8.16c-1.74.83-.22,3.42,1.52,2.59,1.45-.69,3.16.64,4.1,1.64a9,9,0,0,1,2.06,4c.76,3,.36,7.19-2.41,9.11a8.06,8.06,0,0,1-8.71-.1,13.42,13.42,0,0,1-5.92-8.24c-.39-2.08.8-3.51,2.52-4.51a8.22,8.22,0,0,1,6-1.29c1.87.46,2.67-2.43.8-2.9Z" transform="translate(-11.18 -18.62)"/><path class="cls-1" d="M53,61.67a10.91,10.91,0,0,0-7.5,1.16c-2.07,1-4,2.62-4.68,4.93s.28,5,1.47,7.16a17.43,17.43,0,0,0,4.36,5.26,11.46,11.46,0,0,0,12.46,1.55c4.34-2.3,5.5-7.72,4.66-12.22S58.3,58.85,53,61.36c-1.74.83-.22,3.42,1.52,2.59,1.45-.69,3.16.64,4.1,1.64a9,9,0,0,1,2.06,4c.76,3,.36,7.19-2.41,9.11a8.06,8.06,0,0,1-8.71-.1,13.42,13.42,0,0,1-5.92-8.24c-.39-2.08.8-3.51,2.52-4.51a8.23,8.23,0,0,1,6-1.3c1.87.47,2.67-2.42.8-2.89Z" transform="translate(-11.18 -18.62)"/><path class="cls-1" d="M98.93,21.2a10.89,10.89,0,0,0-7.49,1.16c-2.07,1-4,2.62-4.68,4.93-.68,2.46.27,5,1.46,7.17a17.55,17.55,0,0,0,4.37,5.25,11.46,11.46,0,0,0,12.46,1.55c4.34-2.3,5.49-7.72,4.66-12.22S104.24,18.38,99,20.89c-1.74.83-.22,3.42,1.51,2.59,1.46-.69,3.17.64,4.11,1.64a9,9,0,0,1,2.06,4c.75,3,.36,7.19-2.41,9.11a8.06,8.06,0,0,1-8.71-.1,13.48,13.48,0,0,1-5.93-8.24c-.38-2.08.81-3.51,2.52-4.51a8.19,8.19,0,0,1,6-1.29c1.87.46,2.67-2.43.79-2.9Z" transform="translate(-11.18 -18.62)"/><line class="cls-2" x1="0.32" y1="85.7" x2="103.13" y2="0.38"/><line class="cls-2" x1="2.51" y1="87.88" x2="105.32" y2="3.67"/></svg>